# xmcd
#
# Track frame offsets: 
#        150
#        18020
#        36745
#        57270
#        75178
#        93926
#        111007
#        130718
#        149433
#        172614
#        193059
#        209494
#        222638
#
# Disc length: 3610 seconds
#
# Revision: 10
# Processed by: cddbd v1.5.2PL0 Copyright (c) Steve Scherf et al.
# Submitted via: ExactAudioCopy v0.99pb4
#
DISCID=b00e180d
DTITLE=Daniele Silvestri - Unò-dué
DYEAR=2002
DGENRE=Alternative Pop
TTITLE0=Salirò
TTITLE1=Il mio nemico
TTITLE2=L'autostrada
TTITLE3=Sempre di domenica
TTITLE4=Dipendenza
TTITLE5=Manifesto
TTITLE6=1.000 euro al mese
TTITLE7=Il colore del mondo
TTITLE8=Mi interessa
TTITLE9=La classifica
TTITLE10=Sabbia e sandali
TTITLE11=Unò-dué
TTITLE12=Di padre in figlio
EXTD=PAM 506313 2 YEAR: 2002
EXTT0=
EXTT1=
EXTT2=
EXTT3=
EXTT4=
EXTT5=
EXTT6=
EXTT7=
EXTT8=
EXTT9=
EXTT10=
EXTT11=
EXTT12=
PLAYORDER=
